<?xml version="1.0" standalone="no"?>
<!DOCTYPE svg PUBLIC "-//W3C//DTD SVG 20010904//EN"
 "http://www.w3.org/TR/2001/REC-SVG-20010904/DTD/svg10.dtd">
<svg version="1.0" xmlns="http://www.w3.org/2000/svg"
 width="645.000000pt" height="387.000000pt" viewBox="0 0 645.000000 387.000000"
 preserveAspectRatio="xMidYMid meet">

<g transform="translate(0.000000,387.000000) scale(0.100000,-0.100000)"
fill="#000000" stroke="none">
<path d="M3225 3510 c-4 -6 -53 -10 -114 -10 -79 0 -112 -4 -127 -15 -10 -8
-35 -15 -55 -15 -19 0 -44 -7 -55 -15 -10 -8 -28 -15 -39 -15 -27 0 -317 -145
-340 -170 -10 -11 -25 -20 -34 -20 -21 0 -291 -271 -291 -291 0 -8 -16 -31
-36 -50 -20 -18 -40 -43 -45 -54 -5 -11 -13 -27 -18 -35 -5 -8 -12 -22 -15
-30 -4 -8 -22 -44 -41 -80 -19 -36 -35 -77 -35 -91 0 -15 -7 -32 -15 -39 -8
-7 -15 -23 -15 -37 0 -13 -7 -35 -16 -48 -10 -15 -14 -34 -10 -48 3 -14 -1
-32 -9 -43 -23 -30 -22 -495 1 -529 9 -14 14 -36 12 -50 -3 -14 1 -33 8 -42 7
-10 14 -30 14 -44 0 -15 7 -32 15 -39 8 -7 15 -24 15 -37 0 -26 56 -149 72
-159 4 -3 8 -13 8 -23 0 -10 11 -28 25 -41 14 -13 25 -30 25 -38 0 -7 14 -27
30 -44 17 -16 30 -35 30 -42 0 -7 10 -23 22 -36 22 -23 23 -23 26 -5 6 34 19
38 37 12 19 -30 13 -49 -13 -40 -9 3 3 -15 28 -41 24 -25 50 -44 57 -42 7 3
10 -1 7 -8 -6 -16 115 -136 137 -136 9 0 20 -7 23 -15 3 -9 21 -22 40 -30 19
-8 37 -19 41 -25 3 -5 17 -10 30 -10 12 0 25 -7 29 -15 3 -8 12 -15 20 -15 9
0 35 -11 60 -25 25 -14 53 -25 64 -25 10 0 27 -7 38 -15 10 -8 31 -15 46 -15
15 0 30 -4 33 -10 3 -5 25 -10 48 -10 23 0 51 -7 61 -15 29 -22 498 -22 516 0
8 10 31 15 66 15 29 0 56 5 59 10 3 6 21 10 39 10 19 0 39 7 46 15 7 8 21 15
31 15 10 0 20 4 24 9 3 5 36 24 73 41 37 17 74 36 82 41 8 5 27 14 43 20 15 6
32 20 38 30 5 10 18 19 27 19 10 0 42 24 71 54 30 30 64 57 77 60 14 4 24 14
24 24 0 10 36 53 80 97 44 44 80 85 80 91 0 6 10 19 21 30 12 10 34 46 49 79
15 34 35 67 44 74 9 7 16 22 16 32 0 11 14 45 30 76 17 31 30 65 30 77 0 12 7
30 15 40 8 11 15 38 15 61 0 23 5 46 11 52 8 8 11 45 10 101 -2 70 1 91 13
102 19 15 23 139 5 157 -6 6 -13 47 -15 92 -3 44 -11 93 -19 108 -8 14 -11 38
-9 53 4 17 0 31 -10 39 -9 8 -16 28 -16 46 0 18 -7 38 -15 45 -8 7 -15 22 -15
35 0 28 -54 137 -80 160 -11 10 -20 24 -20 31 0 7 -13 29 -30 47 -16 19 -30
41 -30 49 0 7 -25 38 -55 68 -30 30 -55 60 -55 67 0 15 -70 82 -85 83 -6 0
-33 23 -60 50 -27 28 -56 50 -65 50 -9 0 -29 14 -45 30 -16 17 -36 30 -45 30
-9 0 -27 11 -40 25 -13 14 -31 25 -41 25 -9 0 -19 7 -23 15 -3 9 -18 15 -34
15 -16 0 -50 11 -76 25 -26 14 -58 25 -70 25 -13 0 -29 7 -36 15 -7 9 -29 15
-54 15 -23 0 -51 7 -62 15 -13 10 -47 14 -116 15 -59 0 -98 4 -98 10 0 6 -20
10 -44 10 -25 0 -48 -4 -51 -10z m105 -25 c9 -11 33 -15 91 -15 72 0 104 -10
79 -25 -16 -10 -3 -23 46 -45 39 -18 43 -22 32 -40 -9 -14 -16 -16 -31 -9 -10
6 -21 17 -24 25 -11 29 -33 15 -33 -21 0 -36 -15 -46 -38 -23 -9 9 -12 9 -12
-3 0 -9 11 -26 25 -39 14 -13 25 -29 25 -37 0 -15 -26 -18 -35 -3 -3 6 -18 10
-33 10 -21 0 -31 8 -42 33 -19 40 -54 51 -45 15 7 -28 -16 -54 -40 -44 -15 5
-21 42 -7 48 4 2 15 18 25 37 14 27 15 36 5 42 -22 15 -46 10 -74 -14 -28 -24
-26 -47 3 -47 11 0 13 -5 7 -17 -4 -10 -9 -37 -12 -59 -3 -31 -13 -50 -38 -75
-42 -40 -45 -64 -8 -55 23 6 24 5 13 -15 -16 -31 -61 -68 -81 -69 -14 0 -18
-8 -18 -34 0 -37 -5 -43 -70 -76 -25 -12 -52 -26 -60 -31 -8 -5 -24 -13 -35
-18 -11 -5 -47 -36 -80 -70 l-60 -62 -140 3 c-77 2 -147 5 -155 8 -11 4 -16
-4 -18 -29 -3 -29 3 -40 37 -73 23 -21 41 -47 41 -58 0 -11 5 -20 10 -20 6 0
10 -8 10 -17 0 -10 35 -53 77 -95 62 -62 83 -78 107 -78 22 0 39 -10 65 -39
20 -21 45 -41 56 -43 17 -3 20 -12 23 -60 2 -48 8 -62 36 -92 28 -31 38 -36
79 -36 26 0 47 -3 47 -8 0 -15 98 -54 119 -47 12 4 35 0 53 -9 17 -9 54 -16
82 -16 28 0 78 -4 110 -10 33 -5 62 -7 64 -5 3 3 -3 14 -13 25 -16 17 -31 20
-115 20 -75 0 -100 4 -110 15 -8 9 -29 15 -56 15 -23 0 -46 5 -49 10 -3 6 -21
10 -39 10 -19 0 -39 7 -46 15 -7 9 -29 15 -53 15 -59 0 -77 21 -77 89 -1 64
-23 99 -77 120 -17 7 -41 23 -54 37 -12 13 -34 24 -48 24 -36 0 -135 98 -165
164 -13 28 -33 60 -45 70 -25 23 -27 51 -5 60 28 11 154 6 174 -6 15 -10 22
-10 32 0 6 6 18 12 24 12 7 0 43 29 80 65 37 36 75 65 85 65 9 0 19 7 23 15 3
8 14 15 24 15 11 0 25 7 32 15 7 8 28 15 46 15 30 0 34 3 34 25 0 14 5 25 10
25 6 0 10 7 10 15 0 8 16 33 36 55 l36 40 84 0 c81 0 85 -1 94 -25 9 -25 11
-25 119 -25 96 0 112 -2 123 -19 7 -10 27 -21 43 -24 71 -14 91 -20 100 -32 6
-7 19 -14 30 -16 16 -3 21 -14 23 -52 2 -26 7 -47 13 -47 12 0 12 -137 -1
-145 -5 -3 -10 -19 -10 -34 0 -16 -7 -34 -15 -41 -8 -7 -15 -19 -15 -28 0 -8
-7 -23 -15 -32 -15 -17 -11 -50 6 -50 5 0 9 -27 9 -60 0 -51 -4 -65 -26 -90
-35 -39 -54 -77 -54 -109 0 -19 -22 -47 -85 -110 -47 -46 -85 -90 -85 -97 0
-7 -6 -14 -12 -17 -10 -3 -10 -7 -1 -17 19 -20 43 -4 43 28 0 31 56 92 85 92
9 0 20 11 25 25 5 14 21 38 35 53 14 15 25 36 25 46 0 29 40 106 61 119 25 15
27 118 4 137 -8 7 -15 21 -15 32 0 10 7 21 15 24 8 4 15 14 15 24 0 10 7 23
15 30 9 7 14 26 13 43 -1 17 3 32 10 35 15 5 17 128 2 137 -5 3 -10 25 -10 49
0 49 -17 69 -92 105 -26 12 -50 26 -53 32 -4 5 -21 9 -39 9 -17 0 -37 5 -43
11 -7 7 -50 12 -105 13 -91 1 -93 2 -106 29 -10 20 -20 27 -42 27 -16 0 -32 5
-35 10 -3 6 1 10 9 10 8 0 20 9 26 20 13 25 81 28 100 5 7 -8 22 -15 34 -15
12 0 29 -8 38 -19 8 -10 36 -21 61 -25 25 -4 51 -14 57 -21 7 -8 25 -15 39
-15 15 0 36 -7 47 -15 11 -8 41 -15 71 -15 28 0 55 -4 58 -10 3 -5 19 -10 36
-10 20 0 40 -11 63 -35 19 -19 41 -35 50 -35 22 0 0 -47 -25 -53 -11 -3 -19
-10 -19 -17 0 -7 8 -9 20 -5 12 4 27 1 35 -5 19 -15 42 1 48 33 4 18 5 18 6
-5 1 -17 -7 -32 -20 -41 -27 -20 -22 -61 8 -65 16 -2 22 3 25 20 3 20 4 21 10
5 5 -12 1 -23 -12 -34 -23 -20 -27 -68 -5 -76 8 -4 23 5 35 20 20 25 20 25 20
3 0 -13 -8 -24 -20 -27 -28 -7 -37 -65 -16 -98 9 -13 16 -35 16 -48 0 -14 7
-30 15 -37 8 -7 15 -24 15 -39 0 -14 7 -35 15 -45 8 -10 12 -23 9 -28 -4 -5 0
-24 9 -41 22 -48 39 -98 44 -134 3 -18 11 -38 19 -44 8 -6 14 -25 14 -42 0
-34 15 -87 36 -130 8 -16 14 -39 14 -52 0 -12 6 -28 14 -34 8 -6 17 -28 20
-49 4 -20 9 -52 12 -70 l6 -33 -153 5 c-187 5 -254 13 -270 32 -6 8 -24 14
-39 14 -15 0 -33 7 -40 15 -7 8 -25 15 -41 15 -15 0 -31 5 -34 10 -3 6 -14 10
-24 10 -10 0 -24 7 -31 15 -7 9 -30 15 -54 15 -22 0 -50 7 -60 15 -28 21 -130
20 -169 -2 -54 -30 -87 -65 -87 -93 0 -14 -5 -31 -11 -37 -6 -6 -9 -28 -7 -49
l3 -39 540 -3 c297 -1 550 0 563 3 25 6 29 32 7 61 -17 22 -20 70 -5 79 6 3
10 32 10 63 1 59 16 92 42 92 9 0 21 7 28 15 20 24 30 7 30 -49 0 -35 -5 -58
-15 -66 -10 -8 -15 -31 -15 -67 0 -53 -16 -94 -49 -121 -15 -12 -14 -14 1 -26
16 -12 16 -17 -10 -69 -15 -31 -33 -56 -40 -57 -19 0 -25 -26 -12 -50 11 -20
7 -27 -31 -66 -24 -24 -49 -44 -56 -44 -18 0 -16 25 2 40 8 7 15 20 15 30 0
10 7 23 15 30 8 7 15 22 15 35 0 12 11 43 25 69 14 26 25 51 25 57 0 16 -80
11 -86 -6 -4 -8 -18 -15 -34 -15 -15 0 -33 -7 -40 -15 -21 -25 -48 -18 -52 12
-2 17 -10 29 -20 31 -15 3 -18 -4 -18 -42 l0 -46 -59 0 c-33 0 -63 -4 -66 -10
-10 -16 -22 -12 -28 10 -7 26 -33 26 -49 0 -20 -31 -27 -24 -30 32 -2 41 -7
54 -20 56 -16 3 -18 -5 -18 -67 l0 -71 -35 0 c-37 0 -38 2 -35 62 3 74 5 73
-137 72 -275 -2 -303 -3 -303 -18 0 -7 -10 -26 -22 -41 -21 -27 -24 -27 -95
-22 -40 3 -73 2 -74 -1 -3 -29 -10 -46 -25 -63 -15 -16 -31 -19 -123 -19
l-106 1 -17 38 c-10 20 -18 51 -18 68 0 41 -9 63 -26 63 -20 0 -19 -103 1
-120 36 -30 2 -63 -37 -36 -17 12 -48 16 -130 16 -99 0 -108 2 -108 19 0 10
-6 24 -14 31 -8 6 -16 28 -18 47 -2 20 -9 38 -15 41 -17 5 -18 -79 -1 -96 9
-9 -3 -12 -55 -12 -38 0 -67 4 -67 10 0 6 -19 10 -43 10 -51 0 -87 27 -87 65
0 35 -26 31 -33 -5 -4 -17 -13 -30 -21 -30 -20 0 -86 40 -86 52 0 5 -21 8 -47
6 -46 -3 -48 -4 -51 -36 -2 -22 2 -34 12 -38 17 -7 22 -34 7 -34 -20 0 -41 13
-41 25 0 7 -7 26 -15 41 -8 16 -15 44 -15 62 0 17 -4 32 -10 32 -5 0 -10 15
-10 34 0 18 -7 39 -15 46 -11 9 -14 30 -13 76 2 67 7 75 29 48 9 -11 22 -14
46 -9 26 5 33 3 33 -10 0 -9 -7 -18 -15 -21 -9 -4 -15 -19 -15 -39 0 -18 -7
-38 -15 -45 -19 -16 -20 -74 -1 -89 9 -8 162 -10 552 -9 l539 3 3 29 c2 16 -5
47 -15 69 -14 30 -30 44 -70 63 -28 13 -55 29 -58 34 -9 15 -118 12 -140 -4
-11 -7 -38 -16 -60 -19 -106 -15 -146 -24 -157 -35 -7 -7 -24 -12 -39 -12 -15
0 -32 -7 -39 -15 -8 -10 -30 -15 -61 -15 -26 0 -51 -4 -54 -10 -4 -6 -68 -10
-159 -10 l-152 0 2 41 c1 22 7 46 13 52 6 6 11 21 11 33 0 12 6 35 14 51 23
47 38 96 44 138 2 22 11 49 18 60 8 11 14 29 14 42 0 12 5 25 10 28 6 3 10 19
10 34 0 15 7 36 15 47 8 10 15 31 15 46 0 15 4 30 10 33 5 3 12 28 16 56 4 27
11 52 15 55 5 3 9 18 9 33 0 16 7 34 15 41 8 7 15 27 15 44 0 17 7 40 15 50 8
11 15 28 15 38 0 10 7 30 16 44 9 13 14 27 11 31 -4 3 0 18 8 34 17 33 20 85
5 94 -17 10 -40 -15 -40 -42 0 -13 -7 -35 -16 -48 -9 -14 -14 -31 -11 -39 3
-8 -1 -22 -8 -33 -8 -10 -15 -30 -15 -44 0 -36 -17 -47 -67 -41 -47 5 -57 23
-23 44 11 7 20 20 20 29 0 9 7 22 15 29 8 7 15 20 15 30 0 10 7 23 15 30 8 7
15 19 15 28 0 14 34 49 78 79 12 8 22 25 22 37 0 23 195 226 218 226 14 0 54
-21 63 -34 4 -5 -16 -30 -44 -56 -33 -31 -48 -51 -42 -59 5 -9 28 7 76 55 54
53 71 66 81 56 7 -7 22 -12 35 -12 13 0 32 -5 43 -12 15 -10 22 -9 39 6 11 10
23 26 26 35 2 9 15 21 27 26 13 6 24 18 26 28 2 10 14 29 28 44 13 14 24 31
24 37 0 17 62 74 85 78 30 5 30 40 0 68 -35 33 -32 40 19 40 26 0 48 6 56 15
7 9 29 15 55 15 26 0 48 -6 55 -15z m260 -49 c0 -2 -7 -6 -15 -10 -8 -3 -15
-1 -15 4 0 6 7 10 15 10 8 0 15 -2 15 -4z m-543 -52 c7 -19 -12 -33 -37 -27
-10 3 -32 -8 -53 -26 -19 -17 -40 -31 -48 -31 -7 0 -21 -7 -31 -17 -14 -12
-23 -14 -40 -6 -23 11 -22 11 7 19 16 4 38 18 48 31 10 13 28 23 39 23 11 0
29 11 40 25 22 28 65 34 75 9z m513 -114 c0 -5 -7 -10 -15 -10 -8 0 -15 5 -15
10 0 6 7 10 15 10 8 0 15 -4 15 -10z m-860 -14 c0 -20 -19 -31 -32 -18 -6 6
-7 15 -4 21 10 16 36 13 36 -3z m295 -16 c-3 -5 -24 -10 -45 -10 -21 0 -42 5
-45 10 -4 6 13 10 45 10 32 0 49 -4 45 -10z m-170 -30 c0 -18 -46 -35 -70 -26
-17 6 -17 8 1 27 21 23 69 23 69 -1z m72 -16 c15 -33 9 -44 -25 -44 -48 0 -56
14 -26 43 33 33 36 33 51 1z m-394 -4 c-6 -22 -21 -35 -30 -26 -5 5 24 46 33
46 1 0 0 -9 -3 -20z m137 3 c0 -10 -213 -223 -222 -223 -17 0 -7 30 17 54 14
14 25 31 25 38 0 7 28 41 62 75 47 47 69 63 90 63 15 0 28 -3 28 -7z m-190
-41 c0 -4 -5 -13 -11 -19 -13 -13 -62 4 -53 18 7 11 64 12 64 1z m-110 -77 c0
-9 -9 -15 -21 -15 -18 0 -19 2 -9 15 7 8 16 15 21 15 5 0 9 -7 9 -15z m-50
-102 c0 -3 -24 -32 -52 -64 -68 -74 -102 -118 -108 -141 -4 -16 -8 -17 -23 -6
-16 12 -17 16 -3 48 8 19 31 51 50 69 20 19 36 40 36 46 0 28 32 55 66 55 19
0 34 -3 34 -7z m92 -13 c32 0 21 -43 -22 -85 -22 -21 -40 -47 -40 -57 0 -10
-4 -18 -8 -18 -4 0 -20 -27 -36 -61 -30 -66 -46 -78 -81 -59 -30 16 -55 61
-37 67 6 3 12 13 12 22 0 10 9 26 21 37 11 10 26 32 33 49 19 44 115 130 129
116 6 -6 19 -11 29 -11z m-287 -241 c7 -11 -19 -74 -35 -84 -6 -3 -10 -15 -10
-26 0 -11 -4 -17 -10 -14 -16 10 -12 81 5 95 8 7 15 19 15 26 0 16 26 19 35 3z
m82 -61 c30 -29 44 -72 26 -80 -14 -6 -43 -69 -43 -93 0 -12 -6 -28 -14 -35
-8 -6 -16 -28 -18 -48 -2 -30 -8 -38 -32 -47 -25 -9 -31 -6 -58 24 -21 24 -27
36 -19 44 6 6 11 22 11 36 0 13 7 33 17 43 18 21 59 24 66 6 2 -7 8 -9 13 -5
10 10 -6 37 -32 51 -10 6 -21 12 -23 13 -2 2 5 22 16 45 12 24 24 51 27 61 8
25 26 21 63 -15z m1990 -45 c-3 -10 -5 -4 -5 12 0 17 2 24 5 18 2 -7 2 -21 0
-30z m-1827 -21 c0 -10 -7 -26 -15 -36 -8 -11 -15 -32 -15 -48 0 -17 -7 -31
-20 -38 -14 -7 -20 -7 -20 0 0 5 -11 10 -25 10 -34 0 -45 27 -29 67 17 41 44
59 88 60 27 1 36 -3 36 -15z m-310 -53 c0 -10 -7 -19 -15 -19 -15 0 -21 31 -9
43 11 10 24 -3 24 -24z m2170 1 c0 -5 -4 -10 -10 -10 -5 0 -10 5 -10 10 0 6 5
10 10 10 6 0 10 -4 10 -10z m70 -105 c24 -25 52 -45 62 -45 15 0 18 -9 18 -50
0 -43 -3 -50 -19 -50 -11 0 -23 -5 -26 -11 -11 -17 -45 21 -45 50 0 14 -7 35
-15 45 -8 11 -15 30 -15 42 0 13 -4 26 -10 29 -12 7 -13 35 -2 35 4 0 28 -20
52 -45z m-2270 10 c0 -8 -4 -15 -10 -15 -5 0 -10 7 -10 15 0 8 5 15 10 15 6 0
10 -7 10 -15z m226 4 c3 -6 17 -9 31 -6 19 4 23 1 17 -12 -4 -9 -9 -30 -12
-48 -2 -18 -10 -38 -18 -44 -8 -6 -14 -20 -14 -30 0 -24 -11 -24 -54 2 -38 22
-46 46 -21 55 9 4 15 19 15 38 0 46 37 75 56 45z m2294 -39 c0 -10 -4 -22 -10
-25 -6 -4 -10 7 -10 25 0 18 4 29 10 25 6 -3 10 -15 10 -25z m-2550 -46 c0
-27 -4 -43 -10 -39 -5 3 -10 24 -10 46 0 21 5 39 10 39 6 0 10 -21 10 -46z
m2570 -73 c0 -49 4 -72 15 -81 11 -9 15 -32 15 -79 0 -72 -17 -111 -50 -111
-10 0 -22 -5 -25 -10 -13 -20 -25 2 -25 46 0 24 -5 53 -12 64 -16 25 -3 38 22
22 11 -7 24 -12 30 -12 13 0 13 67 0 75 -5 3 -10 22 -10 41 0 20 -5 45 -11 56
-10 18 -8 24 12 39 13 10 27 19 32 19 4 0 7 -31 7 -69z m-2492 39 c7 -11 18
-20 26 -20 7 0 19 -7 26 -15 10 -13 10 -19 -4 -33 -13 -15 -16 -41 -16 -130 0
-98 -2 -112 -19 -121 -26 -14 -31 -5 -31 54 0 42 -5 56 -25 75 -22 21 -25 32
-25 97 0 40 4 73 9 73 5 0 13 9 16 20 3 11 12 20 18 20 7 0 18 -9 25 -20z
m2552 -60 c0 -27 -4 -52 -10 -55 -6 -4 -10 17 -10 55 0 38 4 59 10 55 6 -3 10
-28 10 -55z m-2402 -23 c16 -26 16 -29 0 -58 -10 -17 -18 -41 -18 -54 0 -12
-7 -28 -15 -35 -8 -7 -15 -28 -15 -46 0 -19 -4 -34 -10 -34 -5 0 -10 -13 -10
-30 0 -20 -5 -30 -15 -30 -21 0 -31 29 -17 51 7 11 12 62 12 128 0 101 2 110
23 124 29 21 45 18 65 -16z m2198 8 c12 -18 15 -39 12 -69 -4 -29 -1 -49 8
-58 8 -8 14 -41 15 -82 2 -57 -1 -71 -16 -82 -24 -18 -45 -1 -45 35 0 15 -7
36 -15 47 -8 10 -15 30 -15 45 0 14 -6 31 -12 37 -7 7 -13 27 -14 44 -1 18 -7
34 -13 36 -6 2 -11 15 -11 28 0 21 4 23 23 19 15 -4 28 -1 36 9 18 22 28 20
47 -9z m-2416 -216 c0 -44 -4 -68 -10 -64 -18 11 -12 135 7 135 2 0 3 -32 3
-71z m2444 -115 c4 -9 4 -19 2 -21 -8 -8 -26 8 -26 23 0 19 16 18 24 -2z m-44
-336 c0 -7 -7 -22 -15 -32 -8 -11 -15 -33 -15 -48 0 -23 -7 -32 -35 -45 -38
-18 -41 -24 -23 -53 11 -17 8 -24 -22 -55 -22 -22 -43 -35 -60 -35 -14 0 -32
-6 -38 -12 -22 -22 -33 11 -16 50 8 19 14 45 14 57 0 12 7 28 15 35 9 8 15 30
15 56 0 42 1 44 29 44 16 0 34 7 41 15 7 8 28 15 46 15 19 0 34 5 34 10 0 6 7
10 15 10 8 0 15 -6 15 -12z m-2094 -37 c25 4 34 -3 34 -28 0 -14 7 -34 16 -44
21 -23 11 -49 -18 -49 -13 0 -30 -5 -38 -10 -23 -14 -1 -28 50 -32 42 -3 45
-5 48 -33 2 -16 8 -36 14 -42 16 -20 -20 -28 -41 -9 -10 9 -28 16 -41 16 -24
0 -90 55 -90 74 0 5 7 17 15 26 14 15 14 18 0 30 -15 12 -22 110 -9 123 4 3
17 -1 29 -9 12 -8 27 -14 31 -13z m178 -41 c6 -6 36 -10 68 -10 l58 0 0 -44
c0 -25 5 -48 10 -51 6 -3 10 -13 10 -21 0 -18 -77 -20 -115 -2 -34 15 -42 5
-16 -21 16 -16 34 -21 74 -21 49 -1 53 -3 75 -37 13 -20 21 -42 18 -49 -7 -18
-56 -17 -80 1 -11 8 -37 15 -58 15 -47 0 -98 47 -98 90 0 15 -7 33 -15 40 -8
7 -15 25 -15 41 0 15 -4 31 -10 34 -14 9 -12 42 3 48 18 7 80 -2 91 -13z
m1689 11 c23 -4 -14 -120 -40 -121 -18 0 -27 -20 -14 -33 16 -16 13 -58 -6
-79 -12 -13 -31 -18 -74 -18 -38 0 -61 -5 -66 -14 -10 -16 -61 -27 -69 -14 -4
6 12 29 35 52 22 23 41 49 41 59 0 9 5 17 10 17 6 0 10 8 10 19 0 10 7 24 15
31 8 7 15 20 15 30 0 10 15 32 34 48 32 28 56 33 109 23z m-2009 -52 c-8 -13
-24 -1 -24 18 0 13 3 13 15 3 8 -7 12 -16 9 -21z m737 -16 c37 -17 38 -20 39
-70 0 -53 -12 -67 -37 -42 -16 16 -57 7 -61 -13 -3 -14 4 -18 30 -18 40 0 92
-46 86 -77 -3 -15 -15 -18 -81 -21 -57 -2 -83 1 -99 13 -13 8 -32 15 -43 15
-26 0 -65 68 -65 114 0 19 -4 38 -10 41 -5 3 -10 22 -10 41 l0 34 107 0 c80 0
116 -4 144 -17z m993 -20 c-9 -56 -30 -83 -62 -83 -34 0 -57 -14 -48 -29 4 -6
19 -11 34 -11 27 -1 62 -20 62 -35 0 -15 -35 -34 -61 -35 -15 0 -32 -7 -39
-15 -14 -17 -120 -22 -120 -5 0 5 23 32 50 59 36 36 50 57 50 77 0 40 74 114
113 114 27 0 28 -1 21 -37z m70 -12 c-17 -39 -34 -46 -34 -14 0 17 40 66 48
59 2 -3 -4 -23 -14 -45z m-764 14 c0 -3 -5 -14 -12 -25 -11 -16 -8 -23 15 -48
34 -36 34 -40 -5 -44 -39 -4 -48 -25 -15 -33 16 -4 35 0 51 10 l26 17 0 -61
c0 -42 -4 -61 -12 -62 -44 -3 -114 4 -116 12 -2 5 -30 9 -62 9 -56 0 -59 2
-74 32 -20 39 -20 38 7 38 29 0 51 15 43 29 -4 6 -20 11 -37 11 -29 0 -29 0
-29 60 l0 60 110 0 c61 0 110 -2 110 -5z m724 -96 c-3 -5 -10 -7 -15 -3 -5 3
-7 10 -3 15 3 5 10 7 15 3 5 -3 7 -10 3 -15z m421 -19 c8 -12 -16 -50 -32 -50
-16 0 -17 32 -1 48 14 14 25 15 33 2z m-96 -62 c-6 -10 -17 -22 -25 -25 -8 -3
-14 -12 -14 -21 0 -22 -90 -112 -111 -112 -9 0 -22 -6 -29 -14 -6 -8 -17 -13
-24 -10 -16 6 14 72 45 99 10 10 19 23 19 30 0 30 104 90 137 78 9 -4 10 -10
2 -25z m-1874 12 c3 -5 19 -10 35 -10 23 0 32 -8 49 -40 12 -22 21 -45 21 -51
0 -6 11 -20 26 -31 15 -13 24 -28 22 -41 -4 -27 -22 -32 -41 -12 -9 8 -21 15
-28 15 -18 0 -59 40 -59 58 0 7 -18 31 -41 53 -25 24 -39 45 -35 54 6 17 42
20 51 5z m215 -55 c8 -9 30 -15 56 -15 42 0 44 -1 44 -29 0 -16 7 -34 15 -41
8 -7 15 -19 15 -28 0 -8 7 -23 16 -33 9 -10 14 -25 11 -34 -8 -20 -61 -20 -77
0 -7 8 -24 15 -38 15 -28 0 -62 25 -62 46 0 7 -10 24 -22 37 -28 29 -58 83
-50 91 12 12 80 5 92 -9z m1483 1 c4 -9 -7 -29 -24 -47 -16 -17 -29 -38 -29
-46 0 -32 -110 -103 -159 -103 -36 0 -59 24 -41 45 15 18 50 87 50 99 0 15 34
35 61 36 15 0 32 7 39 15 17 20 96 20 103 1z m-248 -72 c-14 -27 -25 -54 -25
-61 0 -6 -3 -13 -7 -15 -5 -1 -15 -16 -23 -33 -16 -30 -17 -30 -108 -33 l-92
-3 0 35 c0 19 5 36 12 38 7 3 12 21 11 44 -2 59 9 66 98 63 45 -2 83 2 91 8
17 14 51 21 61 13 4 -3 -4 -28 -18 -56z m-1047 44 c6 -6 46 -11 94 -12 l83 -1
3 -32 c2 -17 10 -37 18 -43 8 -7 14 -25 14 -41 0 -15 5 -31 10 -34 6 -3 10
-10 10 -16 0 -12 -167 -12 -175 1 -3 6 -14 10 -25 10 -11 0 -20 10 -24 25 -4
14 -11 25 -16 25 -6 0 -10 9 -10 19 0 11 -7 26 -15 35 -22 22 -20 76 3 76 10
0 23 -5 30 -12z m348 -22 c11 -8 45 -16 75 -18 l54 -3 0 -85 0 -85 -69 -3
c-46 -2 -74 1 -85 10 -9 8 -28 20 -43 28 -22 10 -28 20 -28 45 0 18 -7 38 -15
45 -18 15 -20 66 -2 73 26 11 93 6 113 -7z m197 -46 c5 -18 14 -20 104 -20 62
0 103 4 111 12 19 19 27 -20 8 -41 -9 -10 -16 -30 -16 -44 0 -26 -8 -32 -38
-28 -8 1 -22 -5 -32 -14 -13 -12 -34 -15 -86 -13 l-69 3 -3 83 c-3 76 9 109
21 62z m717 -90 c0 -5 -9 -10 -21 -10 -11 0 -17 5 -14 10 3 6 13 10 21 10 8 0
14 -4 14 -10z m-1421 -29 c13 -10 21 -23 17 -30 -10 -16 -23 -14 -46 9 -38 38
-15 55 29 21z m1371 9 c0 -12 -37 -50 -48 -50 -21 0 -21 15 0 37 22 24 48 31
48 13z m-1195 -26 c12 -5 55 -75 55 -91 0 -2 -13 -3 -29 -3 -18 0 -38 10 -52
25 -13 13 -31 25 -39 25 -22 1 -53 27 -45 39 7 12 83 15 110 5z m1080 -4 c8
-12 -55 -69 -77 -70 -9 0 -20 -4 -23 -10 -7 -12 -65 -13 -65 -2 0 5 21 28 46
50 34 32 53 42 79 42 19 0 37 -4 40 -10z m-855 -33 c20 -16 50 -74 42 -81 -12
-13 -110 -6 -122 9 -7 8 -18 15 -25 15 -24 0 -57 34 -50 53 6 14 19 17 74 17
37 0 72 -6 81 -13z m91 -3 c9 -11 29 -15 68 -14 87 2 82 5 79 -47 l-3 -48 -50
-3 c-44 -2 -54 2 -87 31 -21 18 -38 40 -38 49 0 9 -4 20 -10 23 -16 10 -11 25
9 25 10 0 24 -7 32 -16z m392 4 c6 -18 -32 -88 -48 -88 -8 0 -21 -7 -29 -16
-11 -11 -31 -14 -68 -12 l-53 3 -3 48 c-3 52 -8 49 79 47 40 -1 61 3 70 14 17
19 46 21 52 4z m207 0 c0 -6 -18 -29 -41 -50 -37 -34 -46 -38 -95 -38 -41 0
-56 4 -61 16 -4 10 1 22 10 29 10 7 17 19 17 27 0 25 11 28 92 28 54 0 78 -4
78 -12z m-617 -124 c11 -11 -3 -24 -18 -18 -8 4 -12 10 -9 15 6 11 18 12 27 3z
m405 -5 c-2 -6 -8 -10 -13 -10 -5 0 -11 4 -13 10 -2 6 4 11 13 11 9 0 15 -5
13 -11z"/>
<path d="M3152 3317 c-13 -14 -22 -36 -22 -55 0 -18 -4 -32 -10 -32 -5 0 -10
-8 -10 -19 0 -10 -7 -24 -15 -31 -11 -9 -13 -16 -6 -23 7 -7 15 -6 25 2 22 19
56 93 56 124 0 15 5 27 10 27 6 0 10 7 10 15 0 21 -13 19 -38 -8z"/>
<path d="M4207 1423 c-14 -13 -6 -33 12 -33 25 0 38 20 20 31 -17 11 -24 11
-32 2z"/>
<path d="M4021 1376 c-16 -17 -19 -26 -11 -31 17 -10 57 32 44 45 -7 7 -17 3
-33 -14z"/>
<path d="M2717 1344 c-18 -19 -5 -34 29 -34 28 0 35 3 32 18 -3 17 -48 29 -61
16z"/>
<path d="M3065 1310 c-4 -7 -3 -16 2 -21 12 -12 45 0 40 15 -5 15 -34 19 -42
6z"/>
<path d="M1710 250 c0 -5 15 -10 33 -10 18 0 39 -6 46 -12 11 -10 10 -8 0 10
-10 15 -23 22 -46 22 -18 0 -33 -4 -33 -10z"/>
<path d="M2564 236 c-11 -12 -21 -42 -24 -74 -6 -66 -24 -72 -28 -9 -2 26 -7
47 -13 47 -16 0 -10 -71 10 -96 l18 -23 22 23 c16 17 21 35 21 74 0 40 4 52
15 52 12 0 15 -13 15 -55 0 -42 5 -60 20 -75 l21 -21 19 23 c12 14 19 39 20
65 0 23 5 45 10 48 6 3 10 15 10 26 0 11 -4 17 -10 14 -5 -3 -10 -14 -10 -24
0 -10 -7 -24 -15 -31 -9 -8 -15 -29 -15 -56 0 -34 -3 -42 -15 -38 -11 5 -15
21 -15 60 0 40 -5 59 -19 73 -18 18 -19 18 -37 -3z"/>
<path d="M2953 239 c-6 -15 -21 -29 -32 -32 -18 -4 -21 -13 -21 -66 0 -34 4
-61 10 -61 6 0 10 21 10 46 0 38 3 45 18 42 13 -3 16 -12 14 -40 -1 -20 2 -39
8 -43 5 -3 10 1 10 10 0 21 27 30 45 15 13 -11 15 -7 15 27 0 21 6 45 13 52 6
8 -3 3 -21 -10 -39 -28 -50 -20 -54 41 -3 43 -4 44 -15 19z"/>
<path d="M4093 225 c-29 -29 -33 -39 -32 -87 0 -49 3 -55 37 -83 22 -18 31
-22 22 -10 -8 11 -19 23 -25 27 -5 4 -10 34 -10 67 0 49 5 64 24 85 36 39 21
39 -16 1z"/>
<path d="M4192 239 c-12 -18 -11 -19 7 -10 11 6 31 11 45 11 14 0 26 5 26 10
0 20 -65 11 -78 -11z"/>
<path d="M4310 251 c0 -6 15 -11 32 -13 22 -2 36 -10 44 -26 l12 -24 16 33 c9
17 16 34 16 36 0 1 -27 3 -60 3 -33 0 -60 -4 -60 -9z"/>
<path d="M4545 242 c-11 -9 -27 -26 -35 -37 -14 -19 -14 -19 5 -5 11 8 26 21
33 28 7 6 27 12 43 12 16 0 29 5 29 10 0 16 -53 11 -75 -8z"/>
<path d="M4865 238 c9 -16 21 -28 26 -28 5 0 9 -28 9 -62 0 -50 -4 -66 -22
-85 -12 -13 -17 -23 -12 -23 6 0 20 11 32 25 17 19 22 38 22 78 0 48 -3 56
-36 88 -33 31 -35 31 -19 7z"/>
<path d="M2357 243 c-9 -8 -9 -126 -1 -147 13 -34 24 -1 24 75 0 73 -6 90 -23
72z"/>
<path d="M2462 233 c5 -25 28 -28 28 -4 0 12 -6 21 -16 21 -9 0 -14 -7 -12
-17z"/>
<path d="M3588 231 c-20 -20 -24 -41 -7 -41 6 0 13 9 16 20 3 11 12 20 19 20
8 0 14 -9 14 -20 0 -11 5 -20 10 -20 16 0 11 32 -7 46 -23 17 -24 17 -45 -5z"/>
<path d="M3870 232 c0 -10 -5 -23 -12 -30 -8 -8 -8 -15 0 -24 6 -7 12 -31 14
-53 2 -26 8 -41 19 -43 13 -2 15 9 13 72 -1 40 -5 79 -8 85 -11 17 -26 13 -26
-7z"/>
<path d="M4750 235 c-10 -13 -10 -19 5 -34 11 -13 16 -33 15 -58 -4 -53 -2
-65 10 -58 6 3 10 42 10 86 0 60 -3 79 -14 79 -7 0 -19 -7 -26 -15z"/>
<path d="M1675 220 c-7 -12 2 -30 16 -30 5 0 9 9 9 20 0 21 -15 27 -25 10z"/>
<path d="M4280 216 c0 -8 -12 -28 -26 -45 -33 -39 -24 -40 16 -1 29 29 40 60
20 60 -5 0 -10 -6 -10 -14z"/>
<path d="M4630 212 c0 -9 -12 -30 -26 -45 -14 -16 -24 -30 -22 -33 3 -2 19 12
36 31 31 34 42 65 22 65 -5 0 -10 -8 -10 -18z"/>
<path d="M1889 184 c-27 -29 -27 -56 2 -85 24 -24 34 -24 59 1 27 27 25 62 -3
88 -29 27 -28 27 -58 -4z m57 -19 c4 -8 3 -27 0 -41 -5 -19 -12 -25 -29 -22
-22 3 -34 35 -23 64 7 19 45 18 52 -1z"/>
<path d="M2023 186 c-29 -30 -29 -57 0 -84 27 -25 52 -28 60 -7 5 11 0 13 -23
8 -29 -5 -30 -5 -30 37 0 41 1 42 30 38 32 -5 37 1 18 20 -17 17 -30 15 -55
-12z"/>
<path d="M2230 200 c0 -5 7 -10 15 -10 24 0 18 -37 -7 -45 l-23 -8 23 -4 c12
-2 22 -11 22 -19 0 -17 -14 -18 -40 -2 -22 14 -35 6 -26 -17 4 -12 17 -15 53
-13 l48 3 3 48 c2 27 -2 55 -9 63 -13 16 -59 19 -59 4z"/>
<path d="M2753 185 c-29 -28 -29 -56 0 -83 29 -27 41 -28 67 -2 27 27 25 60
-4 88 -29 27 -35 26 -63 -3z m57 -45 c0 -36 -2 -40 -25 -40 -22 0 -25 4 -25
40 0 36 3 40 25 40 23 0 25 -4 25 -40z"/>
<path d="M3135 185 c-14 -14 -25 -35 -25 -46 0 -22 32 -39 38 -21 2 7 12 12
22 12 29 0 50 11 50 25 0 23 -21 28 -34 9 -14 -19 -36 -12 -36 12 0 8 9 14 21
14 11 0 17 5 14 10 -10 16 -22 12 -50 -15z"/>
<path d="M3282 193 c-12 -27 -9 -96 6 -101 8 -2 12 9 12 37 0 42 14 61 33 42
14 -14 27 -14 27 -1 0 6 -6 10 -14 10 -7 0 -19 7 -26 15 -16 20 -27 19 -38 -2z"/>
<path d="M3365 200 c-4 -6 8 -10 30 -10 22 0 34 4 30 10 -3 6 -17 10 -30 10
-13 0 -27 -4 -30 -10z"/>
<path d="M3752 179 c-24 -30 -26 -59 -4 -67 8 -2 12 8 12 33 l0 38 40 -6 40
-5 -24 19 c-31 25 -36 24 -64 -12z"/>
<path d="M2140 145 c0 -30 5 -55 10 -55 6 0 10 25 10 55 0 30 -4 55 -10 55 -5
0 -10 -25 -10 -55z"/>
<path d="M1710 170 c0 -5 16 -10 36 -10 21 0 33 4 29 10 -3 6 -19 10 -36 10
-16 0 -29 -4 -29 -10z"/>
<path d="M3553 169 c-6 -6 -9 -18 -6 -25 3 -8 -3 -26 -12 -40 l-17 -27 34 27
c44 33 72 33 116 0 30 -23 33 -24 23 -6 -6 11 -11 32 -11 46 0 31 -19 45 -32
22 -11 -20 -57 -21 -72 -1 -9 12 -14 13 -23 4z"/>
<path d="M4367 174 c-4 -4 -7 -16 -7 -26 0 -10 -7 -21 -15 -24 -17 -7 -20 -30
-5 -39 6 -3 13 2 16 12 3 10 10 28 16 40 11 22 8 49 -5 37z"/>
<path d="M1788 128 c-2 -18 -11 -24 -36 -26 -18 -2 -40 2 -48 9 -18 15 -18 2
0 -17 31 -30 106 -2 106 41 0 24 -18 17 -22 -7z"/>
<path d="M3365 140 c3 -5 13 -10 21 -10 8 0 14 5 14 10 0 6 -9 10 -21 10 -11
0 -17 -4 -14 -10z"/>
<path d="M3404 116 c-3 -9 -17 -16 -29 -16 -13 0 -27 -4 -30 -10 -4 -6 5 -10
20 -10 30 0 73 34 56 45 -6 3 -14 -1 -17 -9z"/>
<path d="M4197 112 c-26 -28 -22 -32 38 -32 30 0 55 5 55 10 0 6 -12 10 -26
10 -15 0 -32 7 -38 16 -11 14 -13 13 -29 -4z"/>
<path d="M4537 110 c-45 -28 -43 -30 37 -30 49 0 75 4 71 10 -3 6 -16 10 -27
10 -12 0 -29 6 -37 14 -14 11 -20 11 -44 -4z"/>
<path d="M4420 100 c0 -13 7 -20 20 -20 13 0 20 7 20 20 0 13 -7 20 -20 20
-13 0 -20 -7 -20 -20z"/>
<path d="M3793 103 c-28 -5 -31 -23 -4 -23 10 0 21 7 25 15 3 8 4 14 3 14 -1
-1 -12 -4 -24 -6z"/>
<path d="M3150 90 c0 -5 14 -10 31 -10 17 0 28 4 24 10 -3 6 -17 10 -31 10
-13 0 -24 -4 -24 -10z"/>
</g>
</svg>
